<mxfile host="app.diagrams.net" modified="2021-02-15T10:57:20.413Z" agent="5.0 (Windows NT 6.1; Win64; x64) AppleWebKit/537.36 (KHTML, like Gecko) Chrome/88.0.4324.150 Safari/537.36" etag="YzblowD2iyWz06hn94vv" version="14.3.1" type="github">
  <diagram id="h8MY5XHXbfl3rPgXXR0w" name="Page-1">
    <mxGraphModel dx="1117" dy="1009" grid="1" gridSize="10" guides="1" tooltips="1" connect="1" arrows="1" fold="1" page="1" pageScale="1" pageWidth="827" pageHeight="1169" math="0" shadow="0">
      <root>
        <mxCell id="0" />
        <mxCell id="1" parent="0" />
        <mxCell id="Kdragnbv43jRlZBvdQGb-6" value="" style="strokeWidth=1;shadow=0;dashed=0;align=center;html=1;shape=mxgraph.mockup.containers.browserWindow;rSize=0;strokeColor=#666666;strokeColor2=#008cff;strokeColor3=#c4c4c4;mainText=,;recursiveResize=0;fontSize=14;" vertex="1" parent="1">
          <mxGeometry x="139" y="410" width="550" height="380" as="geometry" />
        </mxCell>
        <mxCell id="Kdragnbv43jRlZBvdQGb-7" value="iis marconi&amp;nbsp;" style="strokeWidth=1;shadow=0;dashed=0;align=center;html=1;shape=mxgraph.mockup.containers.anchor;fontSize=17;fontColor=#666666;align=left;" vertex="1" parent="Kdragnbv43jRlZBvdQGb-6">
          <mxGeometry x="60" y="12" width="110" height="26" as="geometry" />
        </mxCell>
        <mxCell id="Kdragnbv43jRlZBvdQGb-8" value="https://www.draw.io" style="strokeWidth=1;shadow=0;dashed=0;align=center;html=1;shape=mxgraph.mockup.containers.anchor;rSize=0;fontSize=17;fontColor=#666666;align=left;" vertex="1" parent="Kdragnbv43jRlZBvdQGb-6">
          <mxGeometry x="130" y="60" width="250" height="26" as="geometry" />
        </mxCell>
        <mxCell id="Kdragnbv43jRlZBvdQGb-10" value="" style="verticalLabelPosition=bottom;shadow=0;dashed=0;align=center;html=1;verticalAlign=top;strokeWidth=1;shape=mxgraph.mockup.graphics.simpleIcon;strokeColor=#999999;" vertex="1" parent="Kdragnbv43jRlZBvdQGb-6">
          <mxGeometry x="21" y="130" width="70" height="70" as="geometry" />
        </mxCell>
        <mxCell id="Kdragnbv43jRlZBvdQGb-11" value="&lt;font style=&quot;font-size: 20px&quot;&gt;&lt;b&gt;portale iis marconi civitavecchia&lt;/b&gt;&lt;/font&gt;" style="text;html=1;strokeColor=none;fillColor=none;align=center;verticalAlign=middle;whiteSpace=wrap;rounded=0;strokeWidth=4;fontSize=20;horizontal=1;" vertex="1" parent="Kdragnbv43jRlZBvdQGb-6">
          <mxGeometry x="101" y="155" width="319" height="20" as="geometry" />
        </mxCell>
      </root>
    </mxGraphModel>
  </diagram>
</mxfile>
